<?xml version="1.0" encoding="UTF-8"?>
<svg id="Capa_2" data-name="Capa 2" xmlns="http://www.w3.org/2000/svg" viewBox="0 0 382.22 401.81">
  <defs>
    <style>
      .cls-1 {
        fill: #000;
      }

      .cls-1, .cls-2 {
        stroke-width: 0px;
      }

      .cls-2 {
        fill: #fe0000;
      }
    </style>
  </defs>
  <g id="Layer_1" data-name="Layer 1">
    <g>
      <path class="cls-2" d="M283.58,175.37c-10.56,15.61-24.7,27.2-37.31,40.19-15.49,15.96-31.37,31.55-47.12,47.26-5.15,5.14-10.81,5.46-15.84.4-25.43-25.55-51.74-50.32-75.87-77.05C50.46,123.03,83.21,21.98,166.16,2.85c62.65-14.45,125.73,27.51,135.65,90.57,4.62,29.36-1.16,56.71-18.22,81.94M218.79,145.21c6.18-1.57,7.84-6.79,9.3-11.92,3.04-10.68,5.85-21.42,8.71-32.15,2.88-10.83,1.73-12.34-9.41-12.34-21.53,0-43.05.03-64.58.03q-12.46,0-15.86-12.33c-3.01-10.93-5.07-12.29-16.41-10.88-2.71.34-5.64.63-5.59,4.27.04,3.1,2.22,5.36,5.04,5.13,6.67-.54,7.92,3.84,9.24,8.7,4.61,17.01,9.29,34,13.98,50.99,1.66,6.02,5,11.24,11.6,11.39,17.61.4,35.26,1.26,53.99-.88M206.17,156.78c-.88,1.13-1.91,2.18-2.63,3.41-3.58,6.18-.84,14.78,5.83,18.51,5.8,3.25,13.06,1.14,16.86-4.91,3.5-5.57,3.15-10.94-1.11-15.91-4.73-5.51-10.16-5.98-18.95-1.11M155.31,158.38c-4.98,8.31-2.73,16.99,5.35,20.7,6.85,3.15,14.65-.45,17.52-8.24,2.21-6.01.19-10.98-4.53-14.84-5.3-4.33-10.94-3.73-18.34,2.38Z"/>
      <g>
        <path class="cls-2" d="M28.21,345.44c1.92-1.95,4.24-3.45,6.97-4.48,2.73-1.03,5.75-1.55,9.07-1.55,3.76,0,7.17.72,10.23,2.16,3.06,1.44,5.92,3.6,8.57,6.47l13.94-12.61c-3.76-4.57-8.52-8.08-14.27-10.51s-12.28-3.65-19.58-3.65c-6.27,0-12.04.98-17.31,2.93-5.27,1.95-9.83,4.74-13.66,8.35-3.84,3.62-6.82,7.87-8.96,12.78-2.14,4.91-3.21,10.31-3.21,16.21s1.07,11.3,3.21,16.21c2.14,4.91,5.11,9.17,8.91,12.78,3.8,3.62,8.31,6.4,13.55,8.35,5.24,1.95,10.92,2.93,17.04,2.93,5.6,0,11.32-.85,17.15-2.54,5.83-1.7,10.95-4.13,15.38-7.3v-32.08h-19.36v21.24c-.78.36-1.55.67-2.32.94-3.1,1.07-6.27,1.6-9.51,1.6s-6.22-.54-8.91-1.6c-2.69-1.07-5-2.58-6.91-4.54-1.92-1.95-3.41-4.3-4.48-7.03-1.07-2.73-1.6-5.72-1.6-8.96s.53-6.43,1.6-9.13c1.07-2.69,2.56-5.01,4.48-6.97Z"/>
        <path class="cls-2" d="M135.8,343.23c-5.13-2.62-10.97-3.93-17.53-3.93s-12.39,1.31-17.48,3.93c-5.09,2.62-9.09,6.25-12,10.9-2.91,4.65-4.37,9.99-4.37,16.04s1.45,11.42,4.37,16.1c2.91,4.68,6.91,8.35,12,11.01,5.09,2.66,10.92,3.98,17.48,3.98s12.41-1.33,17.53-3.98c5.13-2.66,9.13-6.32,12-11.01,2.88-4.68,4.31-10.05,4.31-16.1s-1.44-11.39-4.31-16.04-6.88-8.28-12-10.9ZM129.22,377.97c-1.11,2.18-2.6,3.82-4.48,4.92-1.88,1.11-4.04,1.66-6.47,1.66s-4.48-.55-6.36-1.66-3.39-2.75-4.54-4.92c-1.14-2.17-1.72-4.78-1.72-7.8s.57-5.58,1.72-7.69c1.14-2.1,2.66-3.71,4.54-4.81,1.88-1.11,4-1.66,6.36-1.66s4.59.55,6.47,1.66c1.88,1.11,3.37,2.71,4.48,4.81,1.11,2.1,1.66,4.66,1.66,7.69s-.55,5.63-1.66,7.8Z"/>
        <path class="cls-1" d="M222.03,327.58c-6.49-3.17-14.02-4.76-22.57-4.76h-36.62v77.44h36.62c8.55,0,16.08-1.58,22.57-4.76,6.49-3.17,11.56-7.65,15.21-13.44,3.65-5.79,5.47-12.63,5.47-20.52s-1.83-14.82-5.47-20.58c-3.65-5.75-8.73-10.21-15.21-13.39ZM217.83,372.99c-1.85,3.21-4.41,5.64-7.69,7.3-3.28,1.66-7.14,2.49-11.56,2.49h-13.83v-42.48h13.83c4.42,0,8.28.83,11.56,2.49,3.28,1.66,5.84,4.08,7.69,7.25,1.84,3.17,2.76,7.01,2.76,11.51s-.92,8.24-2.76,11.45Z"/>
        <path class="cls-1" d="M298.59,342.9c-4.87-2.4-10.25-3.6-16.15-3.6-6.27,0-11.91,1.31-16.93,3.93-5.02,2.62-8.95,6.27-11.78,10.95-2.84,4.68-4.26,10.01-4.26,15.98s1.46,11.31,4.37,15.99c2.91,4.69,7.01,8.37,12.28,11.06,5.27,2.69,11.45,4.04,18.53,4.04,5.75,0,10.73-.83,14.94-2.49,4.21-1.66,7.74-4.07,10.62-7.25l-11.06-11.5c-2.07,1.77-4.15,3.08-6.25,3.93s-4.63,1.27-7.58,1.27c-3.17,0-5.9-.57-8.19-1.72-2.29-1.14-4.04-2.78-5.26-4.92-.52-.92-.91-1.92-1.2-2.99h43.52c.07-.81.15-1.7.22-2.66.07-.96.11-1.81.11-2.54,0-6.64-1.44-12.28-4.31-16.93-2.88-4.65-6.75-8.17-11.62-10.56ZM275.96,355.9c1.88-1.11,4.07-1.66,6.58-1.66s4.7.55,6.58,1.66c1.88,1.11,3.35,2.66,4.42,4.65.64,1.19,1.05,2.53,1.28,3.98h-24.5c.25-1.42.65-2.74,1.26-3.93,1.03-2.03,2.49-3.6,4.37-4.7Z"/>
        <rect class="cls-1" x="324.25" y="318.18" width="21.02" height="82.09"/>
        <rect class="cls-1" x="358.88" y="340.3" width="21.02" height="59.96"/>
        <path class="cls-1" d="M369.39,333.66c3.91,0,7.03-1.09,9.35-3.26,2.32-2.17,3.49-4.92,3.49-8.24s-1.18-5.77-3.54-7.8c-2.36-2.03-5.46-3.04-9.29-3.04s-6.93,1.07-9.29,3.21c-2.36,2.14-3.54,4.79-3.54,7.97s1.18,5.83,3.54,7.97c2.36,2.14,5.46,3.21,9.29,3.21Z"/>
      </g>
    </g>
  </g>
</svg>